<?xml version="1.0" encoding="utf-8"?>
<!-- Generator: Adobe Illustrator 16.0.0, SVG Export Plug-In . SVG Version: 6.00 Build 0)  -->
<!DOCTYPE svg PUBLIC "-//W3C//DTD SVG 1.1//EN" "http://www.w3.org/Graphics/SVG/1.1/DTD/svg11.dtd">
<svg version="1.1" id="Capa_1" xmlns="http://www.w3.org/2000/svg" xmlns:xlink="http://www.w3.org/1999/xlink" x="0px" y="0px"
	 width="32px" height="32px" viewBox="404.9 281.6 32 32" enable-background="new 404.9 281.6 32 32" xml:space="preserve">
<g>
	<g>
		<g>
			<path fill="#98B9CF" d="M420.9,281.6c-8.8,0-16,7.2-16,16s7.2,16,16,16s16-7.2,16-16C436.9,288.8,429.8,281.6,420.9,281.6z
				 M416.9,305.4h-4v-14h4V305.4z M415.1,290.5c-1,0-1.9-0.8-1.9-1.9c0-1,0.8-1.9,1.9-1.9c1,0,1.9,0.8,1.9,1.9
				C416.9,289.7,416.1,290.5,415.1,290.5z M430.9,305.4h-4v-8.7c0-1-0.3-1.7-1.5-1.7c-2.1,0-2.5,1.7-2.5,1.7v8.7h-4v-14h4v1.3
				c0.6-0.4,2-1.3,4-1.3c1.3,0,4,0.8,4,5.5V305.4L430.9,305.4z"/>
		</g>
	</g>
</g>
</svg>
